<svg width="28" height="28" viewBox="0 0 28 28" fill="none" xmlns="http://www.w3.org/2000/svg">
<path d="M6.53288 23.2404L8.31083 21.818L8.3239 21.808C8.69457 21.5115 8.88161 21.3618 9.09029 21.2552C9.27752 21.1596 9.47716 21.0899 9.68311 21.0476C9.91524 21 10.157 21 10.6424 21H20.7703C22.0745 21 22.7274 21 23.226 20.7459C23.6651 20.5222 24.0222 20.1649 24.2459 19.7259C24.5 19.2272 24.5 18.5751 24.5 17.2708V8.3964C24.5 7.09216 24.5 6.43907 24.2459 5.94043C24.0222 5.50139 23.6643 5.14469 23.2253 4.92099C22.7262 4.66667 22.0737 4.66667 20.7669 4.66667H7.23356C5.92677 4.66667 5.27289 4.66667 4.77376 4.92099C4.33472 5.14469 3.97802 5.50139 3.75432 5.94043C3.5 6.43956 3.5 7.09344 3.5 8.40023V21.7831C3.5 23.0264 3.5 23.6479 3.75487 23.9672C3.97652 24.2449 4.31251 24.4064 4.66781 24.406C5.07634 24.4056 5.56201 24.0171 6.53288 23.2404Z" stroke="black" stroke-width="2" stroke-linecap="round" stroke-linejoin="round"/>
</svg>
