<svg width="28" height="28" viewBox="0 0 28 28" fill="none" xmlns="http://www.w3.org/2000/svg">
<path fill-rule="evenodd" clip-rule="evenodd" d="M9.77162 3.50506H18.2282C19.2218 3.45428 20.1955 3.78724 20.9344 4.43045C21.6732 5.07366 22.1166 5.97425 22.1666 6.93346V23.3291C22.1679 23.6575 22.0258 23.9712 21.7752 24.1932C21.5245 24.4151 21.1885 24.5248 20.8497 24.4953C20.5528 24.4953 20.2642 24.401 20.0282 24.2271L14.7972 20.3905C14.3033 20.0329 13.6241 20.0329 13.1301 20.3905L7.94741 24.2271C7.71807 24.3963 7.43869 24.4902 7.15007 24.4953C6.81129 24.5248 6.47529 24.4151 6.22463 24.1932C5.97397 23.9712 5.83188 23.6575 5.83326 23.3291V6.93346C5.88322 5.97425 6.32657 5.07366 7.06546 4.43045C7.80434 3.78724 8.77803 3.45428 9.77162 3.50506ZM15.9208 19.0028L20.3303 22.268L20.3061 6.93346C20.1918 5.91679 19.2601 5.17252 18.204 5.25424H9.74745C8.6914 5.17252 7.75972 5.91679 7.64539 6.93346V22.268L12.0549 19.0028C13.1967 18.1631 14.779 18.1631 15.9208 19.0028Z" fill="black"/>
</svg>
