<svg width="28" height="28" viewBox="0 0 28 28" fill="none" xmlns="http://www.w3.org/2000/svg">
<path d="M15.9709 24.8942L22.3412 21.2164C23.0212 20.8237 23.3605 20.6274 23.6078 20.3527C23.8266 20.1097 23.9921 19.8235 24.0931 19.5125C24.207 19.1619 24.207 18.77 24.207 17.9885V10.622C24.207 9.8404 24.207 9.4486 24.0931 9.09795C23.9921 8.78696 23.8266 8.5005 23.6078 8.2575C23.3616 7.98405 23.023 7.78856 22.3488 7.39933L15.9697 3.71635C15.2897 3.32374 14.9504 3.12783 14.5889 3.05099C14.269 2.983 13.9383 2.983 13.6185 3.05099C13.257 3.12783 12.9165 3.32374 12.2365 3.71635L5.86502 7.39493C5.18578 7.78709 4.84643 7.98302 4.59928 8.2575C4.38048 8.5005 4.21525 8.78696 4.1142 9.09795C4 9.44942 4 9.84225 4 10.6275V17.9833C4 18.7685 4 19.1611 4.1142 19.5125C4.21525 19.8235 4.38048 20.1097 4.59928 20.3527C4.84657 20.6274 5.18618 20.8237 5.86621 21.2164L12.2365 24.8942C12.9165 25.2869 13.257 25.4829 13.6185 25.5597C13.9383 25.6277 14.269 25.6277 14.5889 25.5597C14.9504 25.4829 15.2908 25.2869 15.9709 24.8942Z" stroke="black" stroke-width="2" stroke-linecap="round" stroke-linejoin="round"/>
<path d="M10.6035 14.3052C10.6035 16.2382 12.1705 17.8052 14.1035 17.8052C16.0365 17.8052 17.6035 16.2382 17.6035 14.3052C17.6035 12.3722 16.0365 10.8052 14.1035 10.8052C12.1705 10.8052 10.6035 12.3722 10.6035 14.3052Z" stroke="black" stroke-width="2" stroke-linecap="round" stroke-linejoin="round"/>
</svg>
