<svg width="16" height="13" viewBox="0 0 16 13" fill="none" xmlns="http://www.w3.org/2000/svg">
<path d="M0.5 12.5H2M2 12.5H8M2 12.5V2.90015C2 2.06007 2 1.63972 2.16349 1.31885C2.3073 1.0366 2.5366 0.8073 2.81885 0.66349C3.13972 0.5 3.56007 0.5 4.40015 0.5H5.60015C6.44023 0.5 6.86004 0.5 7.18091 0.66349C7.46315 0.8073 7.69286 1.0366 7.83667 1.31885C8 1.6394 8 2.05925 8 2.89768V5.18457M8 12.5H14M8 12.5V5.18457M14 12.5H15.5M14 12.5V8.27612C14 7.88223 14 7.68496 13.9528 7.50122C13.9109 7.33835 13.8417 7.18388 13.7485 7.04388C13.6434 6.88592 13.4971 6.75411 13.204 6.49077L11.479 4.94104C10.912 4.43165 10.6284 4.17706 10.3079 4.08044C10.0255 3.99534 9.72428 3.99534 9.44195 4.08044C9.12146 4.17705 8.83794 4.43176 8.27107 4.94104L8 5.18457" stroke="white" stroke-linecap="round" stroke-linejoin="round"/>
</svg>
