<svg width="48" height="48" viewBox="0 0 48 48" fill="none" xmlns="http://www.w3.org/2000/svg">
<path d="M24.1021 4L21.3621 9.6C19.4042 13.6007 16.7801 17.2392 13.6021 20.36L13.2421 20.7C11.201 22.6815 10.0348 25.3955 10.0021 28.24V28.6C9.94806 34.1702 13.2673 39.2203 18.4021 41.38L18.9221 41.6C22.2898 43.0305 26.0944 43.0305 29.4621 41.6H29.5821C34.7553 39.3524 38.0745 34.2199 38.0021 28.58V19.9C36.2782 23.8371 33.1473 26.9893 29.2221 28.74C29.2221 28.74 29.2221 28.74 29.1021 28.74C28.9821 28.74 27.5821 29.32 26.9821 28.74C26.4462 28.1978 26.3949 27.3424 26.8621 26.74L27.0021 26.64H27.1021C31.6936 23.15 32.7641 16.6834 29.5421 11.9C26.9421 7.94 24.1021 4 24.1021 4Z" fill="white"/>
</svg>
